<svg version="1.1" id="Layer_1" xmlns="http://www.w3.org/2000/svg" x="0" y="0" viewBox="0 0 2660 570" xml:space="preserve"><linearGradient id="SVGID_1_" gradientUnits="userSpaceOnUse" x1="1324.687" y1="617.554" x2="1324.687" y2="-221.159"><stop offset=".304" stop-color="#ebf7f7"/><stop offset=".818" stop-color="#41c8f2"/></linearGradient><path fill="url(#SVGID_1_)" d="M2904.9-148H-255.5v734.7h3160.4v-212z"/><path fill="#FFF" d="M924.3 114.2c1.4.5 2 1.9 1.3 3.1-.7 1.1-2.3 1.6-3.7 1.1-.4-.2-.9-.3-1.3-.4-.4-.1-.9-.1-1.4-.1-1.7 0-3.4.6-4.7 1.7-1.4 1.1-2.5 2.8-3 4.7-.3 1.2-1.7 2.1-3.3 1.8-1.2-.2-2-.9-2.2-1.8-.4-1.9-1.5-3.6-3-4.7-1.3-1-3-1.7-4.7-1.7-.5 0-.9 0-1.4.1s-.9.2-1.3.4c-1.4.5-3.1 0-3.7-1.1-.7-1.1-.1-2.5 1.3-3.1.8-.3 1.6-.5 2.5-.7s1.7-.2 2.6-.2c3.2 0 6.2 1.1 8.6 3 .7.5 1.3 1.1 1.8 1.7.5-.6 1.2-1.2 1.8-1.7 2.4-1.9 5.4-3 8.6-3 .9 0 1.7.1 2.6.2 1 .2 1.8.4 2.6.7zm80.5-39.7c1.2.5 1.7 1.6 1.1 2.6-.6 1-2 1.4-3.2.9-.4-.1-.8-.3-1.1-.3-.4-.1-.8-.1-1.2-.1-1.5 0-2.9.5-4 1.4-1.2 1-2.1 2.4-2.5 4.1-.2 1.1-1.5 1.8-2.8 1.6-1-.2-1.7-.8-1.9-1.6-.4-1.7-1.3-3.1-2.5-4-1.1-.9-2.5-1.4-4-1.4-.4 0-.8 0-1.2.1-.4.1-.8.2-1.1.3-1.2.5-2.6 0-3.2-.9-.6-1-.1-2.2 1.1-2.6.7-.3 1.4-.5 2.1-.6.7-.1 1.5-.2 2.2-.2 2.8 0 5.3.9 7.4 2.5.6.4 1.1.9 1.5 1.5l1.5-1.5c2-1.6 4.6-2.5 7.4-2.5.7 0 1.5.1 2.2.2.8 0 1.5.2 2.2.5z"/><g fill="#FF8150"><circle opacity=".5" cx="849.7" cy="169.4" r="24.1"/><circle cx="849.7" cy="169.4" r="17.6"/></g><g opacity=".69" fill="#FFF"><circle cx="682.7" cy="130.6" r="24.3"/><circle cx="707.2" cy="137.6" r="17.4"/><circle cx="653.9" cy="138.4" r="16.4"/><circle cx="624.7" cy="145.7" r="9.3"/><path d="M625 146.2h82v8.7h-82v-8.7z"/></g><g opacity=".76" fill="#FFF"><circle cx="1934" cy="125.5" r="25.5"/><circle cx="1908.2" cy="132.8" r="18.2"/><circle cx="1964.3" cy="133.7" r="17.2"/><circle cx="1981.8" cy="141.3" r="9.8"/><path d="M1908.5 141.9h74.2v9.2h-74.2v-9.2z"/></g><path fill="#BDDDE1" d="M959.9 337.3l-77-117.9v117.9h77z"/><path fill="#D5EDEF" d="M806 337.3h77v-118l-77 118z"/><path fill="#BDDDE1" d="M1979.4 337.3l-49.1-75.1v75.1h49.1z"/><path fill="#D5EDEF" d="M1881.2 337.3h49.1v-75.1l-49.1 75.1z"/><path fill="#BDDDE1" d="M1947.1 337.3l-83.9-128.5v128.5h83.9z"/><path fill="#D5EDEF" d="M1779.3 337.3h83.9V208.8l-83.9 128.5z"/><path fill="#BDDDE1" d="M740.7 337.3l-77.1-117.9v117.9h77.1z"/><path fill="#D5EDEF" d="M586.7 337.3h77v-118l-77 118z"/><path fill="#BDDDE1" d="M882.9 337.3L773.3 169.4v167.9h109.6z"/><path fill="#D5EDEF" d="M663.6 337.3h109.7V169.4L663.6 337.3z"/><path fill="#41C8F2" d="M2655.6 308.3c-2-2.3-5.6-2.3-7.6 0-4.5 5.2-11.2 8.6-18.6 8.6s-14.1-3.3-18.6-8.6c-2-2.3-5.6-2.3-7.6 0-4.5 5.2-11.2 8.6-18.6 8.6s-14.1-3.3-18.6-8.6c-2-2.3-5.6-2.3-7.6 0-4.5 5.2-11.2 8.6-18.6 8.6s-14.1-3.3-18.6-8.6c-2-2.3-5.6-2.3-7.6 0-4.5 5.2-11.2 8.6-18.6 8.6s-14.1-3.3-18.6-8.6c-2-2.3-5.6-2.3-7.6 0-4.5 5.2-11.2 8.6-18.6 8.6-7.4 0-14.1-3.3-18.6-8.6-2-2.3-5.6-2.3-7.6 0-4.5 5.2-11.2 8.6-18.6 8.6-7.4 0-14.1-3.3-18.6-8.6-2-2.3-5.6-2.3-7.6 0-4.5 5.2-11.2 8.6-18.6 8.6-7.4 0-14.1-3.3-18.6-8.6-2-2.3-5.6-2.3-7.6 0-4.5 5.2-11.2 8.6-18.6 8.6-7.4 0-14.1-3.3-18.6-8.6-2-2.3-5.6-2.3-7.6 0-4.5 5.2-11.2 8.6-18.6 8.6s-14.1-3.3-18.6-8.6c-2-2.3-5.6-2.3-7.6 0-4.5 5.2-11.2 8.6-18.6 8.6s-14.1-3.3-18.6-8.6c-2-2.3-5.6-2.3-7.6 0-4.5 5.2-11.2 8.6-18.6 8.6s-14.1-3.3-18.6-8.6c-2-2.3-5.6-2.3-7.6 0-4.5 5.2-11.2 8.6-18.6 8.6-7.4 0-14.1-3.3-18.6-8.6-2-2.3-5.6-2.3-7.6 0-4.5 5.2-11.2 8.6-18.6 8.6-7.4 0-14.1-3.3-18.6-8.6-2-2.3-5.6-2.3-7.6 0-4.5 5.2-11.2 8.6-18.6 8.6s-14.1-3.3-18.6-8.6c-2-2.3-5.6-2.3-7.6 0-4.2 4.9-10.3 8.1-17.2 8.5-6.9-.4-13-3.6-17.3-8.5-2-2.3-5.6-2.3-7.6 0-4.5 5.2-11.2 8.6-18.6 8.6-7.4 0-14.1-3.3-18.6-8.6-2-2.3-5.6-2.3-7.6 0-4.5 5.2-11.2 8.6-18.6 8.6s-14.1-3.3-18.6-8.6c-2-2.3-5.6-2.3-7.6 0-4.5 5.2-11.2 8.6-18.6 8.6-7.4 0-14.1-3.3-18.6-8.6-2-2.3-5.6-2.3-7.6 0-4.5 5.2-11.2 8.6-18.6 8.6s-14.1-3.3-18.6-8.6c-2-2.3-5.6-2.3-7.6 0-4.5 5.2-11.2 8.6-18.6 8.6-7.4 0-14.1-3.3-18.6-8.6-2-2.3-5.6-2.3-7.6 0-4.5 5.2-11.2 8.6-18.6 8.6s-14.1-3.3-18.6-8.6c-2-2.3-5.6-2.3-7.6 0-4.5 5.2-11.2 8.6-18.6 8.6-7.4 0-14.1-3.3-18.6-8.6-2-2.3-5.6-2.3-7.6 0-4.5 5.2-11.2 8.6-18.6 8.6s-14.1-3.3-18.6-8.6c-2-2.3-5.6-2.3-7.6 0-4.5 5.2-11.2 8.6-18.6 8.6-7.4 0-14.1-3.3-18.6-8.6-2-2.3-5.6-2.3-7.6 0-4.5 5.2-11.2 8.6-18.6 8.6s-14.1-3.3-18.6-8.6c-2-2.3-5.6-2.3-7.6 0-4.5 5.2-11.2 8.6-18.6 8.6-7.4 0-14.1-3.3-18.6-8.6-2-2.3-5.6-2.3-7.6 0-4.5 5.2-11.2 8.6-18.6 8.6s-14.1-3.3-18.6-8.6c-2-2.3-5.6-2.3-7.6 0-4.5 5.2-11.2 8.6-18.6 8.6-7.4 0-14.1-3.3-18.6-8.6-2-2.3-5.6-2.3-7.6 0-4.5 5.2-11.2 8.6-18.6 8.6s-14.1-3.3-18.6-8.6c-2-2.3-5.6-2.3-7.6 0-4.5 5.2-11.2 8.6-18.6 8.6h-.2c-7.4-.1-14-3.4-18.4-8.5-2-2.3-5.6-2.3-7.6 0-4.5 5.2-11.2 8.6-18.6 8.6-7.4 0-14.1-3.3-18.6-8.6-2-2.3-5.6-2.3-7.6 0-4.5 5.2-11.2 8.6-18.6 8.6s-14.1-3.3-18.6-8.6c-2-2.3-5.6-2.3-7.6 0-4.5 5.2-11.2 8.6-18.6 8.6-7.4 0-14.1-3.3-18.6-8.6-2-2.3-5.6-2.3-7.6 0-4.5 5.2-11.2 8.6-18.6 8.6-7.4 0-14.1-3.3-18.6-8.6-2-2.3-5.6-2.3-7.6 0-4.5 5.2-11.2 8.6-18.6 8.6-7.4 0-14.1-3.3-18.6-8.6-2-2.3-5.6-2.3-7.6 0-4.5 5.2-11.2 8.6-18.6 8.6s-14.1-3.3-18.6-8.6c-2-2.3-5.6-2.3-7.6 0-4.5 5.2-11.2 8.6-18.6 8.6-7.4 0-14.1-3.3-18.6-8.6-2-2.3-5.6-2.3-7.6 0-4.5 5.2-11.2 8.6-18.6 8.6-7.4 0-14.1-3.3-18.6-8.6-2-2.3-5.6-2.3-7.6 0-4.5 5.2-11.2 8.6-18.6 8.6-7.4 0-14.1-3.3-18.6-8.6-2-2.3-5.6-2.3-7.6 0-4.5 5.2-11.2 8.6-18.6 8.6-7.4 0-14.1-3.3-18.6-8.6-2-2.3-5.6-2.3-7.6 0-4.5 5.2-11.2 8.6-18.6 8.6-7.4 0-14.1-3.3-18.6-8.6-2-2.3-5.6-2.3-7.6 0-4.5 5.2-11.2 8.6-18.6 8.6s-14.1-3.3-18.6-8.6c-2-2.3-5.6-2.3-7.6 0-4.5 5.2-11.2 8.6-18.6 8.6-7.4 0-14.1-3.3-18.6-8.6-2-2.3-5.6-2.3-7.6 0-4.5 5.2-11.2 8.6-18.6 8.6-7.4 0-14.1-3.3-18.6-8.6-2-2.3-5.6-2.3-7.6 0-4.5 5.2-11.2 8.6-18.6 8.6h-.2c-7.4-.1-13.9-3.4-18.4-8.5-2-2.3-5.6-2.3-7.6 0-4.5 5.2-11.2 8.6-18.6 8.6-7.4 0-14.1-3.3-18.6-8.6-2-2.3-5.6-2.3-7.6 0-4.5 5.2-11.2 8.6-18.6 8.6-7.4 0-14.1-3.3-18.6-8.6-2-2.3-5.6-2.3-7.6 0-4.5 5.2-11.2 8.6-18.6 8.6s-14.1-3.3-18.6-8.6c-2-2.3-5.6-2.3-7.6 0-4.5 5.2-11.2 8.6-18.6 8.6s-14.1-3.3-18.6-8.6c-2-2.3-5.6-2.3-7.6 0-4.5 5.2-11.2 8.6-18.6 8.6-7.4 0-14.1-3.3-18.6-8.6-2-2.3-5.6-2.3-7.6 0-4.5 5.2-11.2 8.6-18.6 8.6-7.4 0-14.1-3.3-18.6-8.6-2-2.3-5.6-2.3-7.6 0-4.5 5.2-11.2 8.6-18.6 8.6-7.4 0-14.1-3.3-18.6-8.6-2-2.3-5.6-2.3-7.6 0-4.5 5.2-11.2 8.6-18.6 8.6-7.4 0-14.1-3.3-18.6-8.6-2-2.3-5.6-2.3-7.6 0-4.5 5.2-11.2 8.6-18.6 8.6-7.4 0-14.1-3.3-18.6-8.6-2-2.3-5.6-2.3-7.6 0-4.5 5.2-11.2 8.6-18.6 8.6-7.4 0-14.1-3.3-18.6-8.6-2-2.3-5.6-2.3-7.6 0-4.5 5.2-11.2 8.6-18.6 8.6-7.4 0-14.1-3.3-18.6-8.6-2-2.3-5.6-2.3-7.6 0-4.5 5.2-11.2 8.6-18.6 8.6-7.4 0-14.1-3.3-18.6-8.6-2-2.3-5.6-2.3-7.6 0-4.5 5.2-11.2 8.6-18.6 8.6-7.4 0-14.1-3.3-18.6-8.6-2-2.3-5.6-2.3-7.6 0-4.5 5.2-11.2 8.6-18.6 8.6s-14.1-3.3-18.6-8.6c-2-2.3-5.6-2.3-7.6 0-4.5 5.2-11.2 8.6-18.6 8.6-8.3 0-15.6-4.1-20-10.4h-1.3v166.9H2674V316.8c-7.3 0-13.9-3.3-18.4-8.5z"/><path fill="#1795BC" d="M2655.6 323.9c-2-2.3-5.6-2.3-7.6 0-4.5 5.2-11.2 8.6-18.6 8.6s-14.1-3.3-18.6-8.6c-2-2.3-5.6-2.3-7.6 0-4.5 5.2-11.2 8.6-18.6 8.6s-14.1-3.3-18.6-8.6c-2-2.3-5.6-2.3-7.6 0-4.5 5.2-11.2 8.6-18.6 8.6s-14.1-3.3-18.6-8.6c-2-2.3-5.6-2.3-7.6 0-4.5 5.2-11.2 8.6-18.6 8.6s-14.1-3.3-18.6-8.6c-2-2.3-5.6-2.3-7.6 0-4.5 5.2-11.2 8.6-18.6 8.6-7.4 0-14.1-3.3-18.6-8.6-2-2.3-5.6-2.3-7.6 0-4.5 5.2-11.2 8.6-18.6 8.6-7.4 0-14.1-3.3-18.6-8.6-2-2.3-5.6-2.3-7.6 0-4.5 5.2-11.2 8.6-18.6 8.6-7.4 0-14.1-3.3-18.6-8.6-2-2.3-5.6-2.3-7.6 0-4.5 5.2-11.2 8.6-18.6 8.6-7.4 0-14.1-3.3-18.6-8.6-2-2.3-5.6-2.3-7.6 0-4.5 5.2-11.2 8.6-18.6 8.6s-14.1-3.3-18.6-8.6c-2-2.3-5.6-2.3-7.6 0-4.5 5.2-11.2 8.6-18.6 8.6s-14.1-3.3-18.6-8.6c-2-2.3-5.6-2.3-7.6 0-4.5 5.2-11.2 8.6-18.6 8.6s-14.1-3.3-18.6-8.6c-2-2.3-5.6-2.3-7.6 0-4.5 5.2-11.2 8.6-18.6 8.6-7.4 0-14.1-3.3-18.6-8.6-2-2.3-5.6-2.3-7.6 0-4.5 5.2-11.2 8.6-18.6 8.6-7.4 0-14.1-3.3-18.6-8.6-2-2.3-5.6-2.3-7.6 0-4.5 5.2-11.2 8.6-18.6 8.6s-14.1-3.3-18.6-8.6c-2-2.3-5.6-2.3-7.6 0-4.2 4.9-10.3 8.1-17.2 8.5-6.9-.4-13-3.6-17.3-8.5-2-2.3-5.6-2.3-7.6 0-4.5 5.2-11.2 8.6-18.6 8.6-7.4 0-14.1-3.3-18.6-8.6-2-2.3-5.6-2.3-7.6 0-4.5 5.2-11.2 8.6-18.6 8.6s-14.1-3.3-18.6-8.6c-2-2.3-5.6-2.3-7.6 0-4.5 5.2-11.2 8.6-18.6 8.6-7.4 0-14.1-3.3-18.6-8.6-2-2.3-5.6-2.3-7.6 0-4.5 5.2-11.2 8.6-18.6 8.6s-14.1-3.3-18.6-8.6c-2-2.3-5.6-2.3-7.6 0-4.5 5.2-11.2 8.6-18.6 8.6-7.4 0-14.1-3.3-18.6-8.6-2-2.3-5.6-2.3-7.6 0-4.5 5.2-11.2 8.6-18.6 8.6s-14.1-3.3-18.6-8.6c-2-2.3-5.6-2.3-7.6 0-4.5 5.2-11.2 8.6-18.6 8.6-7.4 0-14.1-3.3-18.6-8.6-2-2.3-5.6-2.3-7.6 0-4.5 5.2-11.2 8.6-18.6 8.6s-14.1-3.3-18.6-8.6c-2-2.3-5.6-2.3-7.6 0-4.5 5.2-11.2 8.6-18.6 8.6-7.4 0-14.1-3.3-18.6-8.6-2-2.3-5.6-2.3-7.6 0-4.5 5.2-11.2 8.6-18.6 8.6s-14.1-3.3-18.6-8.6c-2-2.3-5.6-2.3-7.6 0-4.5 5.2-11.2 8.6-18.6 8.6-7.4 0-14.1-3.3-18.6-8.6-2-2.3-5.6-2.3-7.6 0-4.5 5.2-11.2 8.6-18.6 8.6s-14.1-3.3-18.6-8.6c-2-2.3-5.6-2.3-7.6 0-4.5 5.2-11.2 8.6-18.6 8.6-7.4 0-14.1-3.3-18.6-8.6-2-2.3-5.6-2.3-7.6 0-4.5 5.2-11.2 8.6-18.6 8.6s-14.1-3.3-18.6-8.6c-2-2.3-5.6-2.3-7.6 0-4.5 5.2-11.2 8.6-18.6 8.6h-.2c-7.4-.1-14-3.4-18.4-8.5-2-2.3-5.6-2.3-7.6 0-4.5 5.2-11.2 8.6-18.6 8.6-7.4 0-14.1-3.3-18.6-8.6-2-2.3-5.6-2.3-7.6 0-4.5 5.2-11.2 8.6-18.6 8.6s-14.1-3.3-18.6-8.6c-2-2.3-5.6-2.3-7.6 0-4.5 5.2-11.2 8.6-18.6 8.6-7.4 0-14.1-3.3-18.6-8.6-2-2.3-5.6-2.3-7.6 0-4.5 5.2-11.2 8.6-18.6 8.6-7.4 0-14.1-3.3-18.6-8.6-2-2.3-5.6-2.3-7.6 0-4.5 5.2-11.2 8.6-18.6 8.6-7.4 0-14.1-3.3-18.6-8.6-2-2.3-5.6-2.3-7.6 0-4.5 5.2-11.2 8.6-18.6 8.6s-14.1-3.3-18.6-8.6c-2-2.3-5.6-2.3-7.6 0-4.5 5.2-11.2 8.6-18.6 8.6-7.4 0-14.1-3.3-18.6-8.6-2-2.3-5.6-2.3-7.6 0-4.5 5.2-11.2 8.6-18.6 8.6-7.4 0-14.1-3.3-18.6-8.6-2-2.3-5.6-2.3-7.6 0-4.5 5.2-11.2 8.6-18.6 8.6-7.4 0-14.1-3.3-18.6-8.6-2-2.3-5.6-2.3-7.6 0-4.5 5.2-11.2 8.6-18.6 8.6-7.4 0-14.1-3.3-18.6-8.6-2-2.3-5.6-2.3-7.6 0-4.5 5.2-11.2 8.6-18.6 8.6-7.4 0-14.1-3.3-18.6-8.6-2-2.3-5.6-2.3-7.6 0-4.5 5.2-11.2 8.6-18.6 8.6s-14.1-3.3-18.6-8.6c-2-2.3-5.6-2.3-7.6 0-4.5 5.2-11.2 8.6-18.6 8.6-7.4 0-14.1-3.3-18.6-8.6-2-2.3-5.6-2.3-7.6 0-4.5 5.2-11.2 8.6-18.6 8.6-7.4 0-14.1-3.3-18.6-8.6-2-2.3-5.6-2.3-7.6 0-4.5 5.2-11.2 8.6-18.6 8.6h-.2c-7.4-.1-13.9-3.4-18.4-8.5-2-2.3-5.6-2.3-7.6 0-4.5 5.2-11.2 8.6-18.6 8.6-7.4 0-14.1-3.3-18.6-8.6-2-2.3-5.6-2.3-7.6 0-4.5 5.2-11.2 8.6-18.6 8.6-7.4 0-14.1-3.3-18.6-8.6-2-2.3-5.6-2.3-7.6 0-4.5 5.2-11.2 8.6-18.6 8.6s-14.1-3.3-18.6-8.6c-2-2.3-5.6-2.3-7.6 0-4.5 5.2-11.2 8.6-18.6 8.6s-14.1-3.3-18.6-8.6c-2-2.3-5.6-2.3-7.6 0-4.5 5.2-11.2 8.6-18.6 8.6-7.4 0-14.1-3.3-18.6-8.6-2-2.3-5.6-2.3-7.6 0-4.5 5.2-11.2 8.6-18.6 8.6-7.4 0-14.1-3.3-18.6-8.6-2-2.3-5.6-2.3-7.6 0-4.5 5.2-11.2 8.6-18.6 8.6-7.4 0-14.1-3.3-18.6-8.6-2-2.3-5.6-2.3-7.6 0-4.5 5.2-11.2 8.6-18.6 8.6-7.4 0-14.1-3.3-18.6-8.6-2-2.3-5.6-2.3-7.6 0-4.5 5.2-11.2 8.6-18.6 8.6-7.4 0-14.1-3.3-18.6-8.6-2-2.3-5.6-2.3-7.6 0-4.5 5.2-11.2 8.6-18.6 8.6-7.4 0-14.1-3.3-18.6-8.6-2-2.3-5.6-2.3-7.6 0-4.5 5.2-11.2 8.6-18.6 8.6-7.4 0-14.1-3.3-18.6-8.6-2-2.3-5.6-2.3-7.6 0-4.5 5.2-11.2 8.6-18.6 8.6-7.4 0-14.1-3.3-18.6-8.6-2-2.3-5.6-2.3-7.6 0-4.5 5.2-11.2 8.6-18.6 8.6-7.4 0-14.1-3.3-18.6-8.6-2-2.3-5.6-2.3-7.6 0-4.5 5.2-11.2 8.6-18.6 8.6s-14.1-3.3-18.6-8.6c-2-2.3-5.6-2.3-7.6 0-4.5 5.2-11.2 8.6-18.6 8.6-8.3 0-15.6-4.1-20-10.4h-1.3v603.8H2674V332.4c-7.3 0-13.9-3.3-18.4-8.5z"/><path fill="#1586A0" d="M2673.4 524.1c-144-6.2-165.3-6.8-347.5-6.8-206.4 0-206.4 9.6-412.8 9.6s-206.4-9.6-412.8-9.6c-9.1 0-17.9 0-26.3.1-21.1 0-44.9-.1-72.3-.1-185.5 0-204.2 7.7-356.1 9.3-165.9-2.3-181.2-17.6-371.9-9.3-2.2.1-3.7.4-4.7.8-26-.5-56.2-.8-92.9-.8-206.4 0-206.4 9.6-412.8 9.6-77.5 0-126.1-2.6-167.5-5.4v180.9h2677.6"/><circle opacity=".52" fill="none" stroke="#FFF" stroke-width="2" stroke-linecap="round" stroke-miterlimit="10" cx="1464.1" cy="477.5" r="3.8"/><circle opacity=".52" fill="none" stroke="#FFF" stroke-width="2" stroke-linecap="round" stroke-miterlimit="10" cx="1438.9" cy="454.4" r="2.8"/><circle opacity=".52" fill="none" stroke="#FFF" stroke-width="2" stroke-linecap="round" stroke-miterlimit="10" cx="1457.4" cy="426.8" r="1.9"/><circle opacity=".52" fill="none" stroke="#FFF" stroke-width="2" stroke-linecap="round" stroke-miterlimit="10" cx="1455.5" cy="379.9" r="1.9"/><circle opacity=".52" fill="#FFF" cx="1444.6" cy="432.5" r="2.8"/><circle opacity=".52" fill="#FFF" cx="1460.3" cy="443.4" r="3.8"/><circle opacity=".52" fill="#FFF" cx="1447.5" cy="405" r="2.8"/><circle opacity=".52" fill="#FFF" cx="1474.1" cy="397.3" r="2.8"/><g opacity=".74"><path transform="rotate(-162.213 1364.459 459.125)" fill="#D5ECF7" d="M1356.7 441.4h15.4v35.4h-15.4z"/><path transform="rotate(-162.213 1364.315 517.044)" fill="#FFF" d="M1320.6 475.6h87.5v83h-87.5z"/><path fill="none" stroke="#D5ECF7" stroke-width="2" stroke-linecap="round" stroke-miterlimit="10" d="M1277.4 490.9l-45.6-53.2"/><path transform="rotate(-162.213 1263.65 519.062)" fill="#C3DFEA" d="M1249.1 504.5h29.2v29.2h-29.2z"/><path fill="#344C56" d="M1270.6 505.2c-.8 0-1.7-.1-2.5-.4-2.1-.7-3.8-2.1-4.8-4.1-1-1.9-1.2-4.2-.5-6.3 1.1-3.4 4.2-5.7 7.8-5.7.8 0 1.7.1 2.5.4 4.3 1.4 6.7 6 5.3 10.3-1.1 3.5-4.2 5.8-7.8 5.8z"/><path fill="#D5ECF7" d="M1270.6 491.3c.6 0 1.2.1 1.7.3 3 1 4.7 4.2 3.7 7.2-.8 2.4-2.9 4-5.4 4-.6 0-1.2-.1-1.7-.3-3-1-4.7-4.2-3.7-7.2.8-2.5 2.9-4 5.4-4m0-5c-4.5 0-8.7 2.9-10.2 7.4-1.8 5.6 1.3 11.7 6.9 13.5 1.1.3 2.2.5 3.3.5 4.5 0 8.7-2.9 10.2-7.4 1.8-5.6-1.3-11.7-6.9-13.5-1.1-.4-2.2-.5-3.3-.5z"/><path fill-rule="evenodd" clip-rule="evenodd" fill="#344C56" d="M1238.4 558.8l6.5-39.4s102.3 45.1 217.1 31.9l-57.9 60.7-165.7-53.2z"/><path fill="none" stroke="#A7CCD8" stroke-width="4" stroke-linecap="round" stroke-miterlimit="10" d="M1468.6 524l-9.1 28.2M1429.9 525.1l-8.6 26.9M1381.8 524l-8.6 26.9M1339.3 517.7l-8.7 27.1"/><path fill-rule="evenodd" clip-rule="evenodd" fill="none" stroke="#FF8150" stroke-width="9" stroke-linecap="round" stroke-miterlimit="10" d="M1240.8 519.6s105.1 46.3 223 32.8"/><path fill-rule="evenodd" clip-rule="evenodd" fill="none" stroke="#D5ECF7" stroke-width="6" stroke-linecap="round" stroke-miterlimit="10" d="M1336.3 517c35.8 7.1 71.3 10.6 107.9 9.1 9-.6 18-1.3 27.1-2.3"/><circle fill="none" stroke="#FF8150" stroke-width="11" stroke-miterlimit="10" cx="1402.5" cy="571.8" r="10.1"/><path fill="#FFF" d="M1389.9 567.8c-2.2 6.9 1.6 14.4 8.5 16.6 6.9 2.2 14.4-1.6 16.6-8.5 2.2-6.9-1.6-14.4-8.5-16.6-6.9-2.3-14.3 1.5-16.6 8.5zm20.2-4.8l-2.2 2.5c-1.7-1.4-3.9-2.2-6.1-2l-.3-3.3c3.1-.2 6.2.8 8.6 2.8zm.3 11.3c.3-1.1.5-2.2.4-3.3l3.3-.3c.1 1.5 0 3.1-.5 4.6-.5 1.5-1.2 2.8-2.2 4l-2.5-2.2c.6-.7 1.1-1.7 1.5-2.8zm-15.4 6.3l2.2-2.5c1.7 1.4 3.9 2.2 6.1 2l.3 3.3c-1.5.1-3.1 0-4.6-.5-1.5-.6-2.9-1.3-4-2.3zm1.2-10.8c1.1-3.5 4.8-5.4 8.3-4.3s5.4 4.8 4.3 8.3c-1.1 3.5-4.8 5.4-8.3 4.3-3.5-1.1-5.4-4.8-4.3-8.3zm-5.2 3c-.1-1.5 0-3.1.5-4.6.5-1.5 1.2-2.8 2.2-4l2.5 2.2c-.7.8-1.3 1.8-1.6 2.9-.3 1.1-.5 2.2-.4 3.3l-3.2.2z"/><path transform="rotate(-162.213 1378.715 473.207)" fill="#344C56" d="M1327.6 468.1h102.3v10.3h-102.3z"/><path fill="#BDDDE1" d="M1373.7 503.1l-14.9-4.8c-2.1-.7-3.3-3-2.6-5.1l1.2-3.6c.7-2.1 3-3.3 5.1-2.6l14.9 4.8c2.1.7 3.3 3 2.6 5.1l-1.2 3.6c-.7 2.1-3 3.3-5.1 2.6zM1402.1 512.5l-15.4-5c-2.1-.7-3.3-3-2.6-5.1l1.2-3.8c.7-2.1 3-3.3 5.1-2.6l15.4 5c2.1.7 3.3 3 2.6 5.1l-1.2 3.8c-.7 2.1-3 3.2-5.1 2.6z"/><path fill="none" stroke="#D5ECF7" stroke-width="2" stroke-linecap="round" stroke-miterlimit="10" d="M1230.9 439.5c-4.2-2-9.3 1.4-10.9 5.7-1.7 4.3-.9 9.1-.6 13.7s.3 9.7-2.6 13.3c-2.3 2.8-5.8 4.2-8.7 6.2-11.5 7.9-13.4 23.8-13.5 37.7-.1 13.9 0 29.4-9.5 39.6-6 6.5-14.8 9.5-22.5 14s-14.7 12.4-13.3 21.2"/><path fill="none" stroke="#344C56" stroke-width="4" stroke-linecap="round" stroke-miterlimit="10" d="M1260 502.6l-29.8-63.6"/></g><g fill="none" stroke-width="1.5" stroke-linecap="round" stroke-miterlimit="10"><circle opacity=".52" stroke="#FFF" cx="1159.6" cy="419.4" r="1.5"/><circle opacity=".52" stroke="#FFF" cx="1149.6" cy="440.9" r="1.5"/><circle opacity=".52" stroke="#FFF" cx="1225.1" cy="430.3" r="1.5"/><circle opacity=".52" stroke="#FFF" cx="1178.3" cy="446.6" r="1.5"/><circle opacity=".52" stroke="#FFF" cx="1183.9" cy="373.7" r="1.5"/><circle opacity=".52" stroke="#FFF" cx="1221" cy="394.3" r="1.5"/><g fill-rule="evenodd" clip-rule="evenodd" stroke="#98CCDD" stroke-linejoin="round"><path d="M1148.1 456c-4.6-10.3-16.7-14.6-26.6-8.9M1149.2 450.7c-8.5 7.3-21.4 6.2-27.8-3.2"/><path d="M1125.8 448.5c.2-.8 1-1.3 1.8-1.1.8.2 1.3 1 1.1 1.8M1130.5 444.6c2 .4 3.1 2.8 2.6 5.3-.6 2.5-2.6 4.2-4.6 3.7"/></g><g fill-rule="evenodd" clip-rule="evenodd" stroke="#98CCDD" stroke-linejoin="round"><path d="M1148.9 432c-2.3-8.9-11.5-14.1-20.2-10.8M1150.6 427.9c-7.8 4.7-18.1 2.1-22-6.4"/><path d="M1132 423c.3-.6 1-.9 1.6-.7.6.3.9 1 .7 1.6M1136.3 420.4c1.5.6 2.1 2.7 1.3 4.7-.8 1.9-2.7 3-4.2 2.4"/></g><g fill-rule="evenodd" clip-rule="evenodd" stroke="#98CCDD" stroke-linejoin="round"><path d="M1159.3 378.5c1.6-7.4-3.3-14.6-10.9-15.4M1162.1 376.1c-7.5.6-14.1-5.1-13.8-12.8"/><path d="M1150.2 365.6c.4-.4 1.1-.3 1.4.1.4.4.3 1.1-.1 1.4M1154.3 365.3c.9 1 .6 2.8-.7 3.9-1.3 1.1-3.1 1.2-4 .2"/></g><g fill-rule="evenodd" clip-rule="evenodd" stroke="#98CCDD" stroke-linejoin="round"><path d="M1213.6 423.3c3-7-.4-15-7.8-17.2M1216.7 421.5c-7.5-.9-12.9-7.7-11.1-15.2"/><path d="M1207.1 408.9c.5-.3 1.1-.1 1.4.4s.1 1.1-.4 1.4M1211.2 409.5c.7 1.2 0 2.8-1.5 3.7s-3.3.6-4-.6"/></g><g fill-rule="evenodd" clip-rule="evenodd" stroke="#98CCDD" stroke-linejoin="round"><path d="M1202 388.6c2.1-4.9-.3-10.5-5.5-12.1M1204.2 387.3c-5.3-.6-9.1-5.4-7.8-10.7"/><path d="M1197.4 378.4c.3-.2.8-.1 1 .3.2.3.1.8-.3 1M1200.3 378.8c.5.8 0 2-1 2.6s-2.3.4-2.8-.4"/></g><g fill-rule="evenodd" clip-rule="evenodd" stroke="#98CCDD" stroke-linejoin="round"><path d="M1127.4 400.8c-.3-7.6-6.8-13.3-14.4-12.2M1129.5 397.8c-7.1 2.4-15-1.4-16.6-8.9"/><path d="M1115.3 390.6c.3-.5.9-.6 1.4-.3.5.3.6.9.3 1.4M1119.3 389.3c1.1.8 1.3 2.6.3 4s-2.7 2-3.8 1.2"/></g><g fill-rule="evenodd" clip-rule="evenodd" stroke="#98CCDD" stroke-linejoin="round"><path d="M1188 437.6c1.6-9.1-4.7-17.6-14-18.2M1191.2 434.5c-9.1 1.1-17.4-5.5-17.4-14.9"/><path d="M1176.3 422.3c.5-.5 1.3-.4 1.7 0 .5.5.4 1.3 0 1.7M1181.3 421.8c1.1 1.2.8 3.4-.7 4.8s-3.7 1.6-4.8.4"/></g><g fill-rule="evenodd" clip-rule="evenodd" stroke="#98CCDD" stroke-linejoin="round"><path d="M1154.9 411.1c1.5-8.4-4.4-16.3-13-16.9M1157.9 408.2c-8.4 1-16.2-5.2-16.2-13.8"/><path d="M1144 396.9c.5-.4 1.2-.4 1.6 0 .4.5.4 1.2 0 1.6M1148.7 396.4c1.1 1.1.8 3.1-.6 4.5-1.4 1.3-3.4 1.5-4.5.4"/></g><g fill-rule="evenodd" clip-rule="evenodd" stroke="#98CCDD" stroke-linejoin="round"><path d="M1186.9 406.8c1.3-9.1-5.2-17.4-14.5-17.7M1190 403.7c-9 1.3-17.6-5-17.8-14.4"/><path d="M1174.7 391.9c.5-.5 1.3-.5 1.7 0s.5 1.3 0 1.7M1179.7 391.3c1.2 1.2.9 3.3-.5 4.8-1.5 1.5-3.6 1.7-4.8.6"/></g><path stroke="#98CCDD" stroke-linejoin="round" d="M1155.4 432.8l8.4 3.6M1162.4 447.8l15.6 5.1M1194.3 414.1l5.9 11.8M1167.5 402.6l4.9 4.2M1149.6 382.5l4.4 3.7M1133.1 406.8l6.3 4.3M1125.8 436l7.6.4M1163.8 432l8.6 4.4M1215.1 440.9l-2.7-6M1158 461.4l7.3 1.4"/></g><g fill="none" stroke="#98CCDD" stroke-width="4" stroke-linecap="round" stroke-miterlimit="10"><path d="M598.9 559.2v-91M590.6 473.8l8.3 12.7 8.3-12.7M590.6 488.6l8.3 12.7 8.3-12.7M590.6 503.8l8.3 12.8 8.3-12.8M590.6 517.6l8.3 12.7 8.3-12.7M590.6 532.9l8.3 12.7 8.3-12.7"/></g><g fill="none" stroke="#98CCDD" stroke-width="4" stroke-linecap="round" stroke-miterlimit="10"><path d="M1847.1 569.4v-91M1838.8 484.1l8.3 12.7 8.3-12.7M1838.8 498.8l8.3 12.8 8.3-12.8M1838.8 514.1l8.3 12.7 8.3-12.7M1838.8 527.8l8.3 12.7 8.3-12.7M1838.8 543.2l8.3 12.7 8.3-12.7"/></g><g fill="none" stroke="#98CCDD" stroke-width="4" stroke-linecap="round" stroke-miterlimit="10"><path d="M776.6 569.4v-76.3M768.3 498.8l8.3 12.8 8.3-12.8M768.3 514.1l8.3 12.7 8.3-12.7M768.3 527.8l8.3 12.7 8.3-12.7M768.3 543.2l8.3 12.7 8.3-12.7"/></g><g fill="none" stroke="#98CCDD" stroke-width="4" stroke-linecap="round" stroke-miterlimit="10"><path d="M1811.6 572.3V496M1803.3 501.7l8.3 12.8 8.3-12.8M1803.3 517l8.3 12.7 8.3-12.7M1803.3 530.7l8.3 12.7 8.3-12.7M1803.3 546.1l8.3 12.7 8.3-12.7"/></g><g opacity=".4" fill="none" stroke="#98CCDD" stroke-width="3" stroke-linecap="round" stroke-miterlimit="10"><path d="M693.9 523.7v-54.2M687.9 473.1l6 9.1 6-9.1M687.9 484l6 9.1 6-9.1M687.9 493.8l6 9.2 6-9.2M687.9 504.9l6 9.1 6-9.1"/></g><g opacity=".4" fill="none" stroke="#98CCDD" stroke-width="3" stroke-linecap="round" stroke-miterlimit="10"><path d="M1577.6 520.2V466M1571.6 469.6l6 9.1 5.9-9.1M1571.6 480.5l6 9.1 5.9-9.1M1571.6 490.4l6 9.1 5.9-9.1M1571.6 501.4l6 9.1 5.9-9.1"/></g><g opacity=".4" fill="none" stroke="#98CCDD" stroke-width="3" stroke-linecap="round" stroke-miterlimit="10"><path d="M1633.1 528.8v-54.1M1627.1 478.2l6 9.1 5.9-9.1M1627.1 489.1l6 9.2 5.9-9.2M1627.1 499l6 9.1 5.9-9.1M1627.1 510l6 9.1 5.9-9.1"/></g><g opacity=".4" fill="none" stroke="#98CCDD" stroke-width="3" stroke-linecap="round" stroke-miterlimit="10"><path d="M2149 523.1v-54.2M2143.1 472.5l5.9 9.1 6-9.1M2143.1 483.4l5.9 9.1 6-9.1M2143.1 493.3l5.9 9.1 6-9.1M2143.1 504.3l5.9 9.1 6-9.1"/></g><g opacity=".4" fill="none" stroke="#98CCDD" stroke-width="3" stroke-linecap="round" stroke-miterlimit="10"><path d="M1164.2 524.9v-54.2M1158.2 474.3l6 9.1 6-9.1M1158.2 485.2l6 9.1 6-9.1M1158.2 495l6 9.2 6-9.2M1158.2 506.1l6 9.1 6-9.1"/></g><path fill="#137787" d="M-4.1 702.4h2677.5v-147s-234.1 8.5-440.6 8.5-206.6-8.5-413.2-8.5-206.6 8.5-413.2 8.5c-176.2 0-203.4-11.9-335.3-10.5-71.5-2.3-118.9-2.5-251.5-2.5-206.6 0-206.6 8.5-413.2 8.5s-203.8-8.5-410.5-8.5"/></svg>
