<?xml version="1.0" encoding="UTF-8"?>
<svg width="648px" height="453px" viewBox="0 0 648 453" version="1.1" xmlns="http://www.w3.org/2000/svg" xmlns:xlink="http://www.w3.org/1999/xlink">
    <!-- Generator: Sketch 47.1 (45422) - http://www.bohemiancoding.com/sketch -->
    <title>Group 3</title>
    <desc>Created with Sketch.</desc>
    <defs>
        <polygon id="path-1" points="0 0.302 1820.65624 0.302 1820.65624 453 0 453"></polygon>
    </defs>
    <g id="Duck-tapes" stroke="none" stroke-width="1" fill="none" fill-rule="evenodd">
        <g id="Interflux-duck-tape" transform="translate(-55.000000, -23.000000)">
            <g id="Group-3" transform="translate(55.000000, 23.000000)">
                <mask id="mask-2" fill="white">
                    <use xlink:href="#path-1"></use>
                </mask>
                <g id="Clip-2"></g>
                <path d="M518.583239,222.372363 L518.583239,199.514738 L511.650299,199.885729 C509.356131,184.082147 505.015992,168.689259 498.659083,153.886703 C496.812865,149.587759 494.811358,145.374078 492.65987,141.248264 C517.897709,151.680281 522.121049,186.246915 522.121049,186.246915 L544.947257,186.246915 L536.426251,140.731479 C555.254754,165.531277 565.681041,193.383617 566.615432,222.372363 L518.583239,222.372363 Z M496.042391,351.79238 C471.759515,369.659195 443.227418,383.284341 412.10982,392.164703 C428.975306,383.428833 444.356916,372.261341 457.985216,358.837311 C467.948953,349.024915 476.685639,338.285691 484.131564,326.728984 L496.035091,326.728984 L496.035091,319.857833 C496.035091,319.857833 492.964476,319.856531 488.764364,319.145139 C492.438218,312.78882 495.74243,306.209255 498.659083,299.415557 C506.813765,280.426005 511.653617,260.464066 513.106302,239.909841 L518.583239,240.204682 L518.583239,230.929897 L566.615432,230.929897 C565.146155,276.51107 540.218232,319.285725 496.042391,351.79238 L496.042391,351.79238 Z M419.403774,358.215738 C426.269688,348.569962 432.302745,338.041617 437.456494,326.72638 L472.606307,326.728984 C451.147176,357.605229 420.055459,381.499027 383.631477,394.17066 C396.893454,385.031906 408.900506,372.970781 419.403774,358.215738 L419.403774,358.215738 Z M353.85242,397.659932 C362.33759,388.051255 369.910268,374.418298 376.360749,357.14507 C379.860069,347.772656 382.93732,337.577553 385.567285,326.725078 L426.935308,326.72638 C409.520337,362.874609 382.955238,389.45191 352.020802,399.657428 C352.635323,399.012423 353.245862,398.349195 353.85242,397.659932 L353.85242,397.659932 Z M328.115531,403.776083 L328.115531,326.727682 L372.266154,326.728984 L372.266154,319.857833 C372.266154,319.857833 341.462452,319.857833 341.462452,297.200022 L341.462452,230.929897 L387.021961,230.929897 C386.620465,277.474346 379.688853,321.008557 367.397103,353.925255 C356.556711,382.956958 342.445952,400.745669 328.115531,403.776083 L328.115531,403.776083 Z M280.107229,353.925255 C276.965606,345.509609 274.174379,336.400143 271.752794,326.72638 L319.389464,326.727682 L319.389464,403.776083 C305.059707,400.745669 290.948284,382.956958 280.107229,353.925255 L280.107229,353.925255 Z M198.824531,230.929897 L250.938047,230.929897 C251.206154,262.576113 254.449312,292.918652 260.31049,319.668432 C258.294383,319.857833 257.029505,319.857833 257.029505,319.857833 L257.029505,326.725078 L261.93771,326.725078 C264.567675,337.577553 267.644926,347.772656 271.144909,357.14507 C277.594727,374.418298 285.167405,388.051255 293.652575,397.659932 C294.259133,398.349195 294.870336,399.012423 295.48353,399.657428 C241.089118,381.712509 200.199572,313.150048 198.824531,230.929897 L198.824531,230.929897 Z M143.528247,230.929897 L189.278217,230.929897 C189.653832,254.474182 193.131252,277.329854 199.632832,298.923505 C206.313593,321.112695 215.891097,341.060316 228.100557,358.215738 C238.603825,372.970781 250.611541,385.033208 263.872854,394.17066 C195.108868,370.248876 145.34792,306.330966 143.528247,230.929897 L143.528247,230.929897 Z M151.46194,351.79238 C107.286763,319.285725 82.3588395,276.51107 80.8888996,230.929897 L133.979942,230.929897 C134.516155,254.652518 139.508642,277.671557 148.845912,299.415557 C158.404835,321.676992 172.090207,341.669522 189.520442,358.837311 C203.148079,372.261341 218.529689,383.428833 235.395175,392.164703 C204.277577,383.284341 175.744816,369.659195 151.46194,351.79238 L151.46194,351.79238 Z M151.46194,101.511182 C175.744816,83.6430655 204.277577,70.017919 235.395175,61.1375569 C218.529689,69.8727767 203.148079,81.040919 189.520442,94.4642983 C172.090207,111.632738 158.404835,131.624617 148.845912,153.886703 C139.508642,175.630703 134.516155,198.649742 133.979942,222.372363 L80.8888996,222.372363 C82.3588395,176.791841 107.286763,134.015884 151.46194,101.511182 L151.46194,101.511182 Z M228.100557,95.0878241 C215.891097,112.241294 206.313593,132.188915 199.632832,154.378104 C193.131252,175.973708 189.653832,198.827428 189.278217,222.372363 L143.528247,222.372363 C145.34792,146.970643 195.108868,83.0533845 263.873518,59.1316 C250.612205,68.2697034 238.603825,80.3321302 228.100557,95.0878241 L228.100557,95.0878241 Z M293.652575,55.6416776 C285.167405,65.2523069 277.594727,78.8839621 271.144909,96.1578414 C267.64559,105.528953 264.568338,115.723406 261.939037,126.573277 L257.029505,126.572626 L257.029505,133.445729 C257.029505,133.445729 258.293719,133.445729 260.31049,133.633828 C254.449312,160.384259 251.206154,190.726798 250.938047,222.372363 L198.824531,222.372363 C200.199572,140.152863 241.089118,71.5891 295.48353,53.6454836 C294.870336,54.2891862 294.259133,54.9537164 293.652575,55.6416776 L293.652575,55.6416776 Z M287.833206,222.372363 L260.483034,222.372363 C260.750477,191.273522 263.935236,161.520665 269.68426,135.379441 C278.182702,137.838397 287.833206,143.420841 287.833206,156.10354 L287.833206,222.372363 Z M260.483034,230.929897 L287.833206,230.929897 L287.833206,297.200022 C287.833206,309.881419 278.182702,315.464514 269.68426,317.923471 C263.935236,291.782247 260.750477,262.028087 260.483034,230.929897 L260.483034,230.929897 Z M319.389464,49.5261776 L319.389464,126.57588 L271.753458,126.573277 C274.175706,116.899514 276.966269,107.79135 280.107229,99.3763543 C290.948284,70.3446517 305.059707,52.5559405 319.389464,49.5261776 L319.389464,49.5261776 Z M367.397103,99.3763543 C379.688853,132.293053 386.620465,175.827264 387.021961,222.372363 L341.462452,222.372363 L341.462452,156.10354 C341.462452,133.445729 372.266154,133.445729 372.266154,133.445729 L372.266154,126.577833 L328.115531,126.57588 L328.115531,49.5261776 C342.445952,52.5565914 356.556711,70.3446517 367.397103,99.3763543 L367.397103,99.3763543 Z M426.935308,126.574578 L385.566621,126.572626 C382.935993,115.723406 379.859405,105.528953 376.360749,96.1578414 C369.910268,78.8839621 362.33759,65.2523069 353.85242,55.6416776 C353.245862,54.9537164 352.635323,54.2891862 352.021465,53.6454836 C382.955238,63.85035 409.520337,90.42635 426.935308,126.574578 L426.935308,126.574578 Z M472.607634,126.57588 L437.45583,126.574578 C432.302082,115.261294 426.269688,104.732298 419.403774,95.0878241 C408.900506,80.3321302 396.89279,68.2697034 383.631477,59.1316 C420.056786,71.8038845 451.148503,95.6983328 472.607634,126.57588 L472.607634,126.57588 Z M465.232053,202.372673 L465.232053,156.10354 C465.232053,141.817117 466.011818,135.293527 479.707145,137.644441 C490.913197,156.624229 498.651119,177.82541 502.061513,200.39991 L465.232053,202.372673 Z M465.232053,237.347397 L503.567288,239.400216 C501.543881,267.363203 492.920013,293.556497 479.224022,316.474001 C472.020322,313.479384 465.232053,307.83641 465.232053,297.200022 L465.232053,237.347397 Z M411.602143,230.929897 L411.602143,297.200022 C411.602143,313.161113 396.316759,317.877259 387.28144,319.272057 C393.087537,292.619906 396.300169,262.419255 396.566948,230.929897 L411.602143,230.929897 Z M411.602143,222.372363 L396.566948,222.372363 C396.300169,190.883656 393.087537,160.683656 387.28144,134.030854 C396.316759,135.425001 411.602143,140.141798 411.602143,156.10354 L411.602143,222.372363 Z M496.042391,101.511182 C506.640558,109.309811 516.127145,117.700074 524.451716,126.577833 L484.132892,126.57588 C476.68763,115.019173 467.949617,104.279298 457.985216,94.4642983 C444.356916,81.0415698 428.975306,69.8727767 412.10982,61.1375569 C443.227418,70.017919 471.759515,83.6430655 496.042391,101.511182 L496.042391,101.511182 Z M576.1644,222.372363 C575.44768,198.464897 568.725774,175.283143 556.149991,153.405066 C543.347246,131.132566 525.051638,111.153703 501.771506,94.0230138 C478.592247,76.9671733 451.623662,63.5834966 421.614325,54.2436259 C391.939458,45.0078931 360.505308,40.1329362 328.115531,39.7307034 L328.115531,0.302130172 L319.389464,0.302130172 L319.389464,39.7307034 C286.999687,40.1329362 255.566201,45.0078931 225.89067,54.2436259 C195.881333,63.5834966 168.912748,76.9671733 145.733489,94.0230138 C122.453357,111.153703 104.157085,131.132566 91.3550042,153.405066 C78.7792207,175.283143 72.0573151,198.464897 71.340595,222.372363 L-0.000265451895,222.372363 L-0.000265451895,230.929897 L71.340595,230.929897 C72.0573151,254.838014 78.7792207,278.018466 91.3550042,299.897195 C104.157085,322.170346 122.453357,342.148557 145.733489,359.279897 C168.912748,376.335738 195.881333,389.718764 225.89067,399.058634 C255.566201,408.293716 286.999687,413.169324 319.389464,413.572208 L319.389464,453.00013 L328.115531,453.00013 L328.115531,413.572208 C360.505308,413.169324 391.939458,408.293716 421.614325,399.058634 C451.623662,389.718764 478.592247,376.335738 501.771506,359.279897 C525.051638,342.148557 543.347246,322.170346 556.149991,299.897195 C568.725774,278.018466 575.44768,254.838014 576.1644,230.929897 L647.504597,230.929897 L647.504597,222.372363 L576.1644,222.372363 Z" id="Fill-1" fill="#23578C" mask="url(#mask-2)"></path>
            </g>
        </g>
    </g>
</svg>